<svg width="375" height="189" viewBox="0 0 375 189" fill="none" xmlns="http://www.w3.org/2000/svg">
<g filter="url(#filter0_d_666_22323)">
<rect x="29" y="29" width="318" height="125" rx="10" fill="#CCE5FF" shape-rendering="crispEdges"/>
<path d="M47.6398 118.268C45.3252 118.268 43.2345 117.745 41.3678 116.7C39.5198 115.673 38.0638 114.254 36.9998 112.443C35.9545 110.614 35.4318 108.561 35.4318 106.283C35.4318 104.006 35.9545 101.962 36.9998 100.151C38.0638 98.3222 39.5198 96.8942 41.3678 95.8675C43.2345 94.8222 45.3252 94.2995 47.6398 94.2995C49.6745 94.2995 51.4945 94.6728 53.0998 95.4195C54.7238 96.1662 56.0398 97.1928 57.0478 98.4995C58.0558 99.8062 58.7185 101.271 59.0358 102.895H53.8838C53.6038 101.775 52.9038 100.842 51.7838 100.095C50.6825 99.3488 49.3385 98.9755 47.7518 98.9755C46.3892 98.9755 45.1572 99.2928 44.0558 99.9275C42.9545 100.543 42.0865 101.411 41.4518 102.531C40.8358 103.633 40.5278 104.883 40.5278 106.283C40.5278 107.665 40.8358 108.915 41.4518 110.035C42.0865 111.155 42.9545 112.033 44.0558 112.667C45.1572 113.283 46.3892 113.591 47.7518 113.591C48.7972 113.591 49.7772 113.386 50.6918 112.975C51.6252 112.565 52.3905 112.033 52.9878 111.379C53.6038 110.726 53.9772 110.054 54.1078 109.363H59.2598C59.0172 110.913 58.3732 112.369 57.3278 113.731C56.2825 115.094 54.9105 116.186 53.2118 117.008C51.5318 117.848 49.6745 118.268 47.6398 118.268ZM62.0576 94.1875H67.0416V102.979C68.0683 101.598 69.599 100.907 71.6336 100.907C72.903 100.907 74.023 101.206 74.9936 101.803C75.9643 102.382 76.711 103.222 77.2336 104.323C77.775 105.425 78.0456 106.722 78.0456 108.215V117.708H73.0616V109.055C73.0616 107.805 72.8096 106.853 72.3056 106.199C71.8203 105.527 71.111 105.191 70.1776 105.191C69.207 105.191 68.4416 105.555 67.8816 106.283C67.3216 107.011 67.0416 108.01 67.0416 109.279V117.708H62.0576V94.1875ZM88.557 118.1C87.0077 118.1 85.6263 117.726 84.413 116.98C83.1997 116.252 82.257 115.234 81.585 113.927C80.913 112.621 80.577 111.146 80.577 109.503C80.577 107.861 80.913 106.386 81.585 105.079C82.257 103.773 83.1997 102.755 84.413 102.027C85.6263 101.281 87.0077 100.907 88.557 100.907C90.6663 100.907 92.2343 101.598 93.261 102.979V101.299H98.245V117.708H93.261V116.028C92.2343 117.409 90.6663 118.1 88.557 118.1ZM89.341 113.843C90.5543 113.843 91.525 113.442 92.253 112.639C92.981 111.818 93.345 110.773 93.345 109.503C93.345 108.234 92.981 107.198 92.253 106.395C91.525 105.574 90.5543 105.163 89.341 105.163C88.165 105.163 87.2223 105.574 86.513 106.395C85.8037 107.198 85.449 108.234 85.449 109.503C85.449 110.773 85.8037 111.818 86.513 112.639C87.2223 113.442 88.165 113.843 89.341 113.843ZM112.059 105.583H108.811V117.708H103.827V105.583H100.579V101.299H103.827V96.4275H108.811V101.299H112.059V105.583ZM124.082 118.1C121.972 118.1 120.404 117.409 119.378 116.028V117.708H114.394V94.1875H119.378V102.979C120.404 101.598 121.972 100.907 124.082 100.907C125.631 100.907 127.012 101.281 128.226 102.027C129.439 102.755 130.382 103.773 131.054 105.079C131.726 106.386 132.062 107.861 132.062 109.503C132.062 111.146 131.726 112.621 131.054 113.927C130.382 115.234 129.439 116.252 128.226 116.98C127.012 117.726 125.631 118.1 124.082 118.1ZM123.298 113.843C124.474 113.843 125.416 113.442 126.126 112.639C126.835 111.818 127.19 110.773 127.19 109.503C127.19 108.234 126.835 107.198 126.126 106.395C125.416 105.574 124.474 105.163 123.298 105.163C122.084 105.163 121.114 105.574 120.386 106.395C119.658 107.198 119.294 108.234 119.294 109.503C119.294 110.773 119.658 111.818 120.386 112.639C121.114 113.442 122.084 113.843 123.298 113.843ZM142.851 100.907C144.513 100.907 146.006 101.281 147.331 102.027C148.657 102.755 149.693 103.773 150.439 105.079C151.186 106.386 151.559 107.861 151.559 109.503C151.559 111.146 151.186 112.621 150.439 113.927C149.693 115.234 148.657 116.252 147.331 116.98C146.006 117.726 144.513 118.1 142.851 118.1C141.19 118.1 139.697 117.726 138.371 116.98C137.046 116.252 136.01 115.234 135.263 113.927C134.517 112.621 134.143 111.146 134.143 109.503C134.143 107.861 134.517 106.386 135.263 105.079C136.01 103.773 137.046 102.755 138.371 102.027C139.697 101.281 141.19 100.907 142.851 100.907ZM142.851 105.163C141.694 105.163 140.751 105.574 140.023 106.395C139.314 107.198 138.959 108.234 138.959 109.503C138.959 110.773 139.314 111.818 140.023 112.639C140.751 113.442 141.694 113.843 142.851 113.843C144.009 113.843 144.942 113.442 145.651 112.639C146.379 111.818 146.743 110.773 146.743 109.503C146.743 108.234 146.379 107.198 145.651 106.395C144.942 105.574 144.009 105.163 142.851 105.163ZM164.176 105.583H160.928V117.708H155.944V105.583H152.696V101.299H155.944V96.4275H160.928V101.299H164.176V105.583ZM184.41 105.583H181.162V117.708H176.178V105.583H172.93V101.299H176.178V96.4275H181.162V101.299H184.41V105.583ZM186.745 101.299H191.729V102.979C192.756 101.598 194.286 100.907 196.321 100.907C197.217 100.907 197.936 101.001 198.477 101.188L198.533 105.863C197.824 105.49 196.974 105.303 195.985 105.303C194.66 105.303 193.614 105.658 192.849 106.367C192.102 107.077 191.729 108.057 191.729 109.307V117.708H186.745V101.299ZM207.448 118.1C205.898 118.1 204.517 117.726 203.304 116.98C202.09 116.252 201.148 115.234 200.476 113.927C199.804 112.621 199.468 111.146 199.468 109.503C199.468 107.861 199.804 106.386 200.476 105.079C201.148 103.773 202.09 102.755 203.304 102.027C204.517 101.281 205.898 100.907 207.448 100.907C209.557 100.907 211.125 101.598 212.152 102.979V101.299H217.136V117.708H212.152V116.028C211.125 117.409 209.557 118.1 207.448 118.1ZM208.232 113.843C209.445 113.843 210.416 113.442 211.144 112.639C211.872 111.818 212.236 110.773 212.236 109.503C212.236 108.234 211.872 107.198 211.144 106.395C210.416 105.574 209.445 105.163 208.232 105.163C207.056 105.163 206.113 105.574 205.404 106.395C204.694 107.198 204.34 108.234 204.34 109.503C204.34 110.773 204.694 111.818 205.404 112.639C206.113 113.442 207.056 113.843 208.232 113.843ZM237.081 101.299L230.781 117.708H225.601L219.301 101.299H224.705L228.373 111.995L232.041 101.299H237.081ZM246.152 118.1C244.51 118.1 243.035 117.726 241.728 116.98C240.44 116.252 239.432 115.234 238.704 113.927C237.976 112.621 237.612 111.146 237.612 109.503C237.612 107.861 237.976 106.386 238.704 105.079C239.432 103.773 240.44 102.755 241.728 102.027C243.035 101.281 244.51 100.907 246.152 100.907C247.795 100.907 249.26 101.281 250.548 102.027C251.855 102.755 252.872 103.773 253.6 105.079C254.328 106.386 254.692 107.861 254.692 109.503C254.692 110.045 254.655 110.577 254.58 111.099H242.568C242.755 112.051 243.166 112.789 243.8 113.311C244.435 113.834 245.219 114.095 246.152 114.095C246.862 114.095 247.487 113.983 248.028 113.759C248.588 113.517 248.971 113.199 249.176 112.807H254.188C253.908 113.853 253.386 114.767 252.62 115.552C251.855 116.354 250.912 116.98 249.792 117.428C248.672 117.876 247.459 118.1 246.152 118.1ZM249.82 107.879C249.615 106.89 249.195 106.143 248.56 105.639C247.926 105.117 247.123 104.855 246.152 104.855C245.182 104.855 244.388 105.117 243.772 105.639C243.156 106.143 242.746 106.89 242.54 107.879H249.82ZM262.604 117.708H257.62V94.1875H262.604V117.708ZM274.19 101.299H279.174V102.979C280.201 101.598 281.769 100.907 283.878 100.907C285.428 100.907 286.809 101.281 288.022 102.027C289.236 102.755 290.178 103.773 290.85 105.079C291.522 106.386 291.858 107.861 291.858 109.503C291.858 111.146 291.522 112.621 290.85 113.927C290.178 115.234 289.236 116.252 288.022 116.98C286.809 117.726 285.428 118.1 283.878 118.1C281.769 118.1 280.201 117.409 279.174 116.028V124.54H274.19V101.299ZM283.094 113.843C284.27 113.843 285.213 113.442 285.922 112.639C286.632 111.818 286.986 110.773 286.986 109.503C286.986 108.234 286.632 107.198 285.922 106.395C285.213 105.574 284.27 105.163 283.094 105.163C281.881 105.163 280.91 105.574 280.182 106.395C279.454 107.198 279.09 108.234 279.09 109.503C279.09 110.773 279.454 111.818 280.182 112.639C280.91 113.442 281.881 113.843 283.094 113.843ZM299.764 117.708H294.78V94.1875H299.764V117.708ZM310.643 118.1C309.094 118.1 307.712 117.726 306.499 116.98C305.286 116.252 304.343 115.234 303.671 113.927C302.999 112.621 302.663 111.146 302.663 109.503C302.663 107.861 302.999 106.386 303.671 105.079C304.343 103.773 305.286 102.755 306.499 102.027C307.712 101.281 309.094 100.907 310.643 100.907C312.752 100.907 314.32 101.598 315.347 102.979V101.299H320.331V117.708H315.347V116.028C314.32 117.409 312.752 118.1 310.643 118.1ZM311.427 113.843C312.64 113.843 313.611 113.442 314.339 112.639C315.067 111.818 315.431 110.773 315.431 109.503C315.431 108.234 315.067 107.198 314.339 106.395C313.611 105.574 312.64 105.163 311.427 105.163C310.251 105.163 309.308 105.574 308.599 106.395C307.89 107.198 307.535 108.234 307.535 109.503C307.535 110.773 307.89 111.818 308.599 112.639C309.308 113.442 310.251 113.843 311.427 113.843ZM324.093 101.299H329.077V102.979C330.103 101.598 331.634 100.907 333.669 100.907C334.938 100.907 336.058 101.206 337.029 101.803C337.999 102.382 338.746 103.222 339.269 104.323C339.81 105.425 340.081 106.722 340.081 108.215V117.708H335.097V109.055C335.097 107.805 334.845 106.853 334.341 106.199C333.855 105.527 333.146 105.191 332.213 105.191C331.242 105.191 330.477 105.555 329.917 106.283C329.357 107.011 329.077 108.01 329.077 109.279V117.708H324.093V101.299Z" fill="#1B03AF"/>
<path d="M174 66.3125C171.101 66.3125 168.75 68.663 168.75 71.5625V76.5625C168.75 79.462 171.101 81.8125 174 81.8125H186C188.899 81.8125 191.25 79.462 191.25 76.5625V71.5625C191.25 68.663 188.899 66.3125 186 66.3125H174ZM171.25 71.5625C171.25 70.0437 172.481 68.8125 174 68.8125H186C187.519 68.8125 188.75 70.0437 188.75 71.5625V76.5625C188.75 78.0813 187.519 79.3125 186 79.3125H174C172.481 79.3125 171.25 78.0813 171.25 76.5625V71.5625Z" fill="#14142B" stroke="black"/>
<path d="M184.75 68.8125H185.25V68.3125V64.5625C185.25 62.2153 183.347 60.3125 181 60.3125H179C176.653 60.3125 174.75 62.2153 174.75 64.5625V68.3125V68.8125H175.25H184.75ZM177.25 64.5625C177.25 63.596 178.034 62.8125 179 62.8125H181C181.966 62.8125 182.75 63.596 182.75 64.5625V66.3125H177.25V64.5625Z" fill="#14142B" stroke="black"/>
<path fill-rule="evenodd" clip-rule="evenodd" d="M176 70.8125C176.414 70.8125 176.75 71.1483 176.75 71.5625V76.5625C176.75 76.9767 176.414 77.3125 176 77.3125C175.586 77.3125 175.25 76.9767 175.25 76.5625V71.5625C175.25 71.1483 175.586 70.8125 176 70.8125Z" fill="#14142B"/>
<path fill-rule="evenodd" clip-rule="evenodd" d="M184 70.8125C184.414 70.8125 184.75 71.1483 184.75 71.5625V76.5625C184.75 76.9767 184.414 77.3125 184 77.3125C183.586 77.3125 183.25 76.9767 183.25 76.5625V71.5625C183.25 71.1483 183.586 70.8125 184 70.8125Z" fill="#14142B"/>
</g>
<defs>
<filter id="filter0_d_666_22323" x="-2.55508" y="0.600431" width="381.11" height="188.11" filterUnits="userSpaceOnUse" color-interpolation-filters="sRGB">
<feFlood flood-opacity="0" result="BackgroundImageFix"/>
<feColorMatrix in="SourceAlpha" type="matrix" values="0 0 0 0 0 0 0 0 0 0 0 0 0 0 0 0 0 0 127 0" result="hardAlpha"/>
<feOffset dy="3.15551"/>
<feGaussianBlur stdDeviation="15.7775"/>
<feComposite in2="hardAlpha" operator="out"/>
<feColorMatrix type="matrix" values="0 0 0 0 0.905882 0 0 0 0 0.917647 0 0 0 0 0.933333 0 0 0 0.07 0"/>
<feBlend mode="normal" in2="BackgroundImageFix" result="effect1_dropShadow_666_22323"/>
<feBlend mode="normal" in="SourceGraphic" in2="effect1_dropShadow_666_22323" result="shape"/>
</filter>
</defs>
</svg>
