<svg width="12" height="12" viewBox="0 0 12 12" fill="none" xmlns="http://www.w3.org/2000/svg">
<path d="M3.57282 11.2038C3.43975 11.1035 3.33208 10.9773 3.25747 10.8341C3.18287 10.6909 3.14315 10.5341 3.14116 10.375V9.23753H2.20782C1.94428 9.24828 1.68122 9.20801 1.43534 9.11926C1.18947 9.03051 0.966173 8.89524 0.779642 8.72203C0.593111 8.54882 0.447428 8.34147 0.351855 8.11316C0.256281 7.88485 0.212907 7.64058 0.22449 7.39586V2.52086C0.212907 2.27614 0.256281 2.03187 0.351855 1.80356C0.447428 1.57525 0.593111 1.3679 0.779642 1.19469C0.966173 1.02148 1.18947 0.886207 1.43534 0.79746C1.68122 0.708714 1.94428 0.668438 2.20782 0.679193H9.79116C10.0547 0.668438 10.3178 0.708714 10.5636 0.79746C10.8095 0.886207 11.0328 1.02148 11.2193 1.19469C11.4059 1.3679 11.5516 1.57525 11.6471 1.80356C11.7427 2.03187 11.7861 2.27614 11.7745 2.52086V7.39586C11.7861 7.64058 11.7427 7.88485 11.6471 8.11316C11.5516 8.34147 11.4059 8.54882 11.2193 8.72203C11.0328 8.89524 10.8095 9.03051 10.5636 9.11926C10.3178 9.20801 10.0547 9.24828 9.79116 9.23753H7.07282L4.90282 11.0034C4.74991 11.1872 4.52742 11.3103 4.28045 11.3475C4.03348 11.3847 3.78051 11.3333 3.57282 11.2038V11.2038ZM6.44866 8.44669C6.59694 8.32526 6.78762 8.2579 6.98532 8.25711H9.79116C9.91664 8.26796 10.0432 8.253 10.1617 8.21328C10.2803 8.17357 10.3879 8.11008 10.477 8.02733C10.5661 7.94458 10.6345 7.8446 10.6773 7.73453C10.7201 7.62445 10.7362 7.50696 10.7245 7.39044V2.51544C10.7362 2.39892 10.7201 2.28144 10.6773 2.17136C10.6345 2.06128 10.5661 1.96131 10.477 1.87856C10.3879 1.79581 10.2803 1.73232 10.1617 1.6926C10.0432 1.65289 9.91664 1.63792 9.79116 1.64878H2.20782C2.0818 1.6378 1.95473 1.65286 1.83572 1.69289C1.71671 1.73291 1.60872 1.7969 1.5195 1.88027C1.43027 1.96364 1.36203 2.06431 1.31967 2.17507C1.27731 2.28582 1.26188 2.40391 1.27449 2.52086V7.39586C1.2628 7.51238 1.27892 7.62986 1.32169 7.73994C1.36446 7.85002 1.43284 7.94999 1.52195 8.03274C1.61107 8.11549 1.71873 8.17898 1.83727 8.2187C1.95582 8.25842 2.08234 8.27338 2.20782 8.26253H3.66616C4.07449 8.37086 4.07449 8.37086 4.19116 8.75003V10.2829L6.44866 8.44669Z" fill="#818C99"/>
</svg>
