<svg width="26" height="26" viewBox="0 0 26 26" fill="none" xmlns="http://www.w3.org/2000/svg">
<path d="M13 25C10.2958 22.0228 6.62856 20.0943 2.64311 19.5538C2.18947 19.5036 1.77051 19.2871 1.46708 18.9462C1.16365 18.6053 0.997265 18.164 1.00003 17.7076V2.84595C1.00002 2.57929 1.05777 2.31578 1.16931 2.07357C1.28085 1.83136 1.44354 1.61619 1.64619 1.44286C1.84526 1.27268 2.07826 1.14681 2.32972 1.0736C2.58118 1.00039 2.84533 0.981516 3.10464 1.01824C6.91563 1.65075 10.4019 3.55003 13 6.40906V25Z" stroke="#000001" stroke-width="2" stroke-linecap="round" stroke-linejoin="round"/>
<path d="M13 25C15.7042 22.0228 19.3714 20.0943 23.3569 19.5538C23.8105 19.5036 24.2295 19.2871 24.5329 18.9462C24.8363 18.6053 25.0027 18.164 25 17.7076V2.84595C25 2.57929 24.9422 2.31578 24.8307 2.07357C24.7191 1.83136 24.5565 1.61619 24.3538 1.44286C24.1547 1.27268 23.9217 1.14681 23.6703 1.0736C23.4188 1.00039 23.1547 0.981516 22.8954 1.01824C19.0844 1.65075 15.5981 3.55003 13 6.40906V25Z" stroke="#000001" stroke-width="2" stroke-linecap="round" stroke-linejoin="round"/>
</svg>
