<svg width="71" height="24" viewBox="0 0 71 24" fill="none" xmlns="http://www.w3.org/2000/svg">
<path d="M9.80078 24V19.3418H15.5664V5.33203H9.80078V0.673828H18.6777L23.3535 5.33203V19.3418L18.6777 24H9.80078ZM0.800781 0.673828H8.57031V24H0.800781V0.673828ZM31.8613 6.9668H39.9473V24H31.8613V6.9668ZM25.7793 0.673828H46.0293V5.75391H25.7793V0.673828ZM56.418 24H53.3242L48.6484 19.3418V5.33203L53.3242 0.673828H56.418V24ZM57.6484 5.33203V0.673828H65.9277L70.5859 5.33203V10.0254H62.8164V5.33203H57.6484ZM57.6484 24V19.3418H62.8164V15.9316H70.5859V19.3418L65.9277 24H57.6484Z" fill="#1B03AF"/>
</svg>
