<svg width="24" height="24" viewBox="0 0 24 24" fill="none" xmlns="http://www.w3.org/2000/svg">
<path d="M11.2028 1.30577C11.6574 0.898077 12.3426 0.898077 12.7972 1.30577L23.5972 10.99C24.0926 11.4341 24.1372 12.1993 23.6969 12.699C23.2566 13.1987 22.4981 13.2437 22.0028 12.7995L21.6 12.4383V21.5789C21.6 22.9161 20.5255 24 19.2 24H4.80001C3.47453 24 2.40001 22.9161 2.40001 21.5789V12.4383L1.99725 12.7995C1.50191 13.2437 0.743423 13.1987 0.303121 12.699C-0.13718 12.1993 -0.092563 11.4341 0.402776 10.99L11.2028 1.30577ZM4.80001 10.2863V21.5789H8.4V15.5263C8.4 14.8578 8.93726 14.3158 9.6 14.3158H14.4C15.0627 14.3158 15.6 14.8578 15.6 15.5263V21.5789H19.2V10.2863L12 3.83016L4.80001 10.2863ZM13.2 21.5789V16.7368H10.8V21.5789H13.2Z" fill="#0D0D0D"/>
</svg>
