<svg width="300" height="45" viewBox="0 0 300 45" fill="none" xmlns="http://www.w3.org/2000/svg">
<rect width="300" height="45" rx="6" fill="#FEE500"/>
<g clip-path="url(#clip0_633_24534)">
<path opacity="0.902" fill-rule="evenodd" clip-rule="evenodd" d="M86.375 14.444C81.665 14.444 77.375 18.23 77.375 21.433C77.375 23.833 78.933 25.95 81.306 27.208L80.308 30.874C80.219 31.199 80.588 31.457 80.871 31.27L85.248 28.365C85.617 28.401 85.993 28.422 86.375 28.422C91.345 28.422 95.375 25.293 95.375 21.433C95.375 18.23 91.345 14.444 86.375 14.444Z" fill="black"/>
</g>
<path d="M114.098 15.7205C114.04 19.0265 113.264 21.7742 111.771 23.9637C110.277 26.1387 108.16 27.886 105.42 29.2055L104.397 27.9657C107.66 26.5592 109.951 24.4567 111.27 21.6582L104.854 22.2237L104.506 20.723L111.792 20.288C112.111 19.2585 112.3 18.1927 112.358 17.0907H105.311V15.7205H114.098ZM118.818 13.763V21.5495H121.928V22.9632H118.818V32.7725H117.165V13.763H118.818ZM132.917 15.7205C132.859 19.0265 132.083 21.7742 130.589 23.9637C129.096 26.1387 126.979 27.886 124.238 29.2055L123.216 27.9657C126.479 26.5592 128.77 24.4567 130.089 21.6582L123.673 22.2237L123.325 20.723L130.611 20.288C130.93 19.2585 131.119 18.1927 131.177 17.0907H124.13V15.7205H132.917ZM137.636 13.763V21.5495H140.747V22.9632H137.636V32.7725H135.983V13.763H137.636ZM157.26 20.1357C157.26 21.5857 156.709 22.7747 155.607 23.7027C154.519 24.6307 153.055 25.1527 151.213 25.2687V28.8792H159V30.2712H141.839V28.8792H149.56V25.2687C147.733 25.1382 146.276 24.6162 145.189 23.7027C144.101 22.7747 143.557 21.5857 143.557 20.1357C143.557 18.5697 144.181 17.3155 145.428 16.373C146.689 15.4305 148.342 14.9592 150.387 14.9592C152.46 14.9592 154.121 15.4305 155.368 16.373C156.629 17.3155 157.26 18.5697 157.26 20.1357ZM154.215 22.9197C155.186 22.2237 155.672 21.303 155.672 20.1575C155.672 19.012 155.194 18.0912 154.237 17.3952C153.28 16.6992 151.996 16.3512 150.387 16.3512C148.806 16.3512 147.538 16.6992 146.581 17.3952C145.638 18.0912 145.167 19.012 145.167 20.1575C145.167 21.303 145.638 22.2237 146.581 22.9197C147.538 23.6012 148.806 23.942 150.387 23.942C151.982 23.942 153.258 23.6012 154.215 22.9197ZM183.532 30.3582H166.372V28.9662H174.093V25.7255H168.481V19.7877H179.748V16.7427H168.46V15.3507H181.401V21.158H170.134V24.3335H181.945V25.7255H175.746V28.9662H183.532V30.3582ZM202.351 29.9667H185.191V28.5747H202.351V29.9667ZM199.894 15.8945C199.894 20.578 199.611 24.3262 199.045 27.1392L197.392 26.9217C197.929 24.4422 198.197 21.2232 198.197 17.2647H186.974V15.8945H199.894ZM219.539 27.6395H217.886V13.763H219.539V27.6395ZM220.017 32.1418H207.141V26.2692H208.794V30.7715H220.017V32.1418ZM209.534 15.0245C210.998 15.0245 212.216 15.4667 213.188 16.3512C214.174 17.2357 214.667 18.374 214.667 19.766C214.667 21.158 214.181 22.2962 213.21 23.1807C212.238 24.0507 211.02 24.4857 209.556 24.4857C208.091 24.4857 206.866 24.0507 205.88 23.1807C204.908 22.3107 204.423 21.1797 204.423 19.7877C204.423 18.3957 204.908 17.2575 205.88 16.373C206.866 15.474 208.084 15.0245 209.534 15.0245ZM209.534 16.46C208.519 16.46 207.678 16.7717 207.011 17.3952C206.344 18.0187 206.01 18.809 206.01 19.766C206.01 20.7085 206.344 21.4915 207.011 22.115C207.692 22.724 208.541 23.0285 209.556 23.0285C210.6 23.0285 211.448 22.724 212.1 22.115C212.767 21.506 213.101 20.7302 213.101 19.7877C213.101 18.8017 212.767 18.0042 212.1 17.3952C211.448 16.7717 210.592 16.46 209.534 16.46Z" fill="black"/>
<defs>
<clipPath id="clip0_633_24534">
<rect width="18" height="18" fill="white" transform="translate(77.375 13.5)"/>
</clipPath>
</defs>
</svg>
