<svg width="12" height="12" viewBox="0 0 12 12" fill="none" xmlns="http://www.w3.org/2000/svg">
<path d="M8.63158 0C9.52639 0.00501276 10.3831 0.43533 11.0144 1.19682C11.6456 1.95831 12 2.98899 12 4.06339C12 6.31942 11.2474 7.4506 8.07895 10.3828L6.61579 11.7478C6.44039 11.9113 6.22467 12 6.00263 12C5.7806 12 5.56487 11.9113 5.38947 11.7478L3.92105 10.4081C0.736842 7.4506 2.00741e-10 6.31942 2.00741e-10 4.06339C-9.73911e-06 2.98899 0.354372 1.95831 0.985623 1.19682C1.61688 0.43533 2.47361 0.00501276 3.36842 0C3.87933 0.0128979 4.38124 0.163909 4.83685 0.441804C5.29245 0.719699 5.69002 1.11733 6 1.60513C6.30998 1.11733 6.70755 0.719699 7.16315 0.441804C7.61876 0.163909 8.12067 0.0128979 8.63158 0V0ZM3.36842 1.1375C2.72487 1.1425 2.1091 1.45297 1.65551 2.00114C1.20192 2.54931 0.947355 3.29067 0.947368 4.06339C0.947368 5.84547 1.55263 6.75546 4.50526 9.51705L5.96842 10.882C5.97753 10.8903 5.98861 10.8947 6 10.8947C6.01139 10.8947 6.02247 10.8903 6.03158 10.882L7.49474 9.54233C10.4474 6.78706 11.0526 5.87706 11.0526 4.08867C11.0554 3.7039 10.9949 3.32226 10.8747 2.96558C10.7545 2.60891 10.5768 2.28422 10.352 2.01009C10.1271 1.73596 9.85936 1.51779 9.56415 1.36806C9.26894 1.21832 8.95204 1.13997 8.63158 1.1375C7.81053 1.1375 7.05263 1.69361 6.40526 2.8627L6 3.53888L5.61053 2.8627C4.94737 1.69361 4.2 1.1375 3.36842 1.1375Z" fill="#818C99"/>
</svg>
