<svg width="12" height="12" viewBox="0 0 12 12" fill="none" xmlns="http://www.w3.org/2000/svg">
<path d="M6.06333 3.21709V0.881735C6.06429 0.713081 6.10182 0.548271 6.17153 0.406571C6.24124 0.264872 6.34026 0.152138 6.45699 0.0815498C6.57373 0.0109615 6.70338 -0.0145646 6.83076 0.00795552C6.95815 0.0304756 7.07802 0.100112 7.17636 0.208722L11.7619 5.32362C11.8985 5.47629 11.9834 5.6939 11.9978 5.92863C12.0122 6.16336 11.955 6.396 11.8388 6.57543L11.7619 6.67638L7.17636 11.7913C7.07802 11.8999 6.95815 11.9695 6.83076 11.992C6.70338 12.0146 6.57373 11.989 6.45699 11.9185C6.34026 11.8479 6.24124 11.7351 6.17153 11.5934C6.10182 11.4517 6.06429 11.2869 6.06333 11.1183V8.79637C3.66286 8.8704 1.95997 9.52995 0.990552 10.7279C0.89774 10.8406 0.779771 10.9112 0.654051 10.9293C0.52833 10.9474 0.401514 10.9119 0.292312 10.8282C0.18311 10.7445 0.0973049 10.617 0.0475546 10.4644C-0.00219572 10.3118 -0.0132563 10.1423 0.0160045 9.98087C0.800771 5.70051 2.84219 3.41226 6.06333 3.21709ZM6.98658 1.5884V4.41505H6.52495C3.80648 4.41505 2.05229 5.92933 1.19572 9.03192C2.45237 8.05605 4.2322 7.57822 6.52495 7.57822H6.98658V10.4049L10.9412 5.99663L6.98658 1.5884Z" fill="#818C99"/>
</svg>
